# Blender 5.1.1
# www.blender.org
mtllib A-Door-able.mtl
o Cube
v -0.120000 -0.021081 1.000000
v -0.120000 3.978919 1.000000
v -0.120000 -0.021081 -1.000000
v -0.120000 3.978919 -1.000000
v 0.120000 -0.021081 1.000000
v 0.120000 3.978919 1.000000
v 0.120000 -0.021081 -1.000000
v 0.120000 3.978919 -1.000000
v 0.120000 0.240268 1.000000
v 0.120000 0.372257 1.000000
v 0.074394 0.306263 1.000000
v 0.120000 1.559965 -1.000000
v 0.120000 1.427976 -1.000000
v 0.074394 1.493971 -1.000000
v 0.120000 2.115908 1.000000
v 0.120000 2.247956 1.000000
v 0.074394 2.181932 1.000000
v 0.120000 1.307542 -0.574942
v 0.120000 1.241699 -0.464067
v 0.120000 1.180886 -0.583921
v 0.074394 1.274621 -0.519504
v 0.120000 1.239617 -0.562549
v 0.074394 1.196463 -0.545106
v 0.074394 1.241955 -0.623190
v 0.120000 1.868672 0.364801
v 0.120000 1.939636 0.483646
v 0.120000 1.813432 0.493433
v 0.074394 1.904154 0.424223
v 0.120000 1.876462 0.470076
v 0.074394 1.876772 0.536077
v 0.074394 1.827547 0.452336
v 0.120000 2.681990 -1.000000
v 0.120000 2.551562 -1.000000
v 0.074394 2.616776 -1.000000
v 0.120000 2.773068 1.000000
v 0.120000 2.901818 1.000000
v 0.074394 2.837443 1.000000
v 0.120000 3.654682 -1.000000
v 0.120000 3.525931 -1.000000
v 0.074394 3.590307 -1.000000
vn -1.0000 -0.0000 -0.0000
vn -0.0000 -1.0000 -0.0000
vn -0.0000 1.0000 -0.0000
vn 1.0000 -0.0000 -0.0000
vn 0.6886 0.6137 0.3863
vn 0.8325 -0.4689 -0.2950
vn 0.7024 0.6144 0.3595
vn 0.8323 -0.4786 -0.2799
vn 0.6994 0.6175 -0.3600
vn 0.8304 -0.4813 0.2805
vn 0.6903 0.6133 -0.3840
vn 0.8325 -0.4696 0.2939
vn 0.7877 -0.5509 -0.2756
vn 0.7877 0.5509 0.2756
vn 0.7973 -0.5649 -0.2126
vn 0.7973 0.5649 0.2126
vn -0.0000 -0.0000 1.0000
vn -0.0000 -0.0000 -1.0000
vt 0.375000 0.000000
vt 0.625000 0.000000
vt 0.625000 0.250000
vt 0.375000 0.250000
vt 0.125000 0.500000
vt 0.375000 0.500000
vt 0.375000 0.750000
vt 0.125000 0.750000
vt 0.625000 0.500000
vt 0.875000 0.500000
vt 0.875000 0.750000
vt 0.625000 0.750000
vt 0.458039 0.553132
vt 0.455981 0.560062
vt 0.453908 0.554082
vt 0.455562 0.547583
vt 0.453924 0.566992
vt 0.452668 0.557328
vt 0.450123 0.552010
vt 0.493110 0.670600
vt 0.495327 0.678028
vt 0.493430 0.684442
vt 0.492110 0.681073
vt 0.497545 0.685456
vt 0.495231 0.691527
vt 0.489657 0.686679
vt 0.465566 0.500000
vt 0.469691 0.500000
vt 0.473815 0.500000
vt 0.391334 0.750000
vt 0.395459 0.750000
vt 0.399584 0.750000
vt 0.508562 0.750000
vt 0.512688 0.750000
vt 0.516815 0.750000
vt 0.543942 0.500000
vt 0.539866 0.500000
vt 0.535790 0.500000
vt 0.604735 0.500000
vt 0.557681 0.750000
vt 0.553658 0.750000
vt 0.600712 0.500000
vt 0.549634 0.750000
vt 0.596688 0.500000
vt 0.625000 1.000000
vt 0.375000 1.000000
s 0
usemtl Material.001
f 1/1/1 2/2/1 4/3/1 3/4/1
f 3/5/2 7/6/2 5/7/2 1/8/2
f 8/9/3 4/10/3 2/11/3 6/12/3
f 18/13/4 21/14/4 22/15/4 24/16/4
f 19/17/4 23/18/4 22/15/4 21/14/4
f 20/19/4 24/16/4 22/15/4 23/18/4
f 25/20/4 28/21/4 29/22/4 31/23/4
f 26/24/4 30/25/4 29/22/4 28/21/4
f 27/26/4 31/23/4 29/22/4 30/25/4
f 20/19/5 13/27/5 14/28/5 24/16/5
f 24/16/6 14/28/6 12/29/6 18/13/6
f 9/30/7 20/19/7 23/18/7 11/31/7
f 11/31/8 23/18/8 19/17/8 10/32/8
f 27/26/9 19/17/9 21/14/9 31/23/9
f 31/23/10 21/14/10 18/13/10 25/20/10
f 15/33/11 27/26/11 30/25/11 17/34/11
f 17/34/12 30/25/12 26/24/12 16/35/12
f 32/36/13 26/24/13 28/21/13 34/37/13
f 34/37/14 28/21/14 25/20/14 33/38/14
f 38/39/15 36/40/15 37/41/15 40/42/15
f 40/42/16 37/41/16 35/43/16 39/44/16
f 5/7/17 9/30/17 11/31/17 10/32/17 15/33/17 17/34/17 16/35/17 35/43/17 37/41/17 36/40/17 6/12/17 2/45/17 1/46/17
f 10/32/4 19/17/4 27/26/4 15/33/4
f 7/6/4 13/27/4 20/19/4 9/30/4 5/7/4
f 3/4/18 4/3/18 8/9/18 38/39/18 40/42/18 39/44/18 32/36/18 34/37/18 33/38/18 12/29/18 14/28/18 13/27/18 7/6/18
f 33/38/4 25/20/4 18/13/4 12/29/4
f 16/35/4 26/24/4 32/36/4 39/44/4 35/43/4
f 36/40/4 38/39/4 8/9/4 6/12/4
