# Blender 5.1.0
# www.blender.org
mtllib crankin _t_straight_up_frfr.mtl
o Cylinder
v 0.000000 0.868869 0.151760
v 0.000000 -0.868869 0.151760
v -0.075880 0.868869 0.131428
v -0.075880 -0.868869 0.131428
v -0.131428 0.868869 0.075880
v -0.131428 -0.868869 0.075880
v -0.151760 0.868869 0.000000
v -0.151760 -0.868869 0.000000
v -0.131428 0.868869 -0.075880
v -0.131428 -0.868869 -0.075880
v -0.075880 0.868869 -0.131428
v -0.075880 -0.868869 -0.131428
v 0.000000 0.868869 -0.151760
v 0.000000 -0.868869 -0.151760
v 0.075880 0.868869 -0.131428
v 0.075880 -0.868869 -0.131428
v 0.131428 0.868869 -0.075880
v 0.131428 -0.868869 -0.075880
v 0.151760 0.868869 0.000000
v 0.151760 -0.868869 0.000000
v 0.131428 0.868869 0.075880
v 0.131428 -0.868869 0.075880
v 0.075880 0.868869 0.131428
v 0.075880 -0.868869 0.131428
vn -0.2588 -0.0000 0.9659
vn -0.7071 -0.0000 0.7071
vn -0.9659 -0.0000 0.2588
vn -0.9659 -0.0000 -0.2588
vn -0.7071 -0.0000 -0.7071
vn -0.2588 -0.0000 -0.9659
vn 0.2588 -0.0000 -0.9659
vn 0.7071 -0.0000 -0.7071
vn 0.9659 -0.0000 -0.2588
vn 0.9659 -0.0000 0.2588
vn -0.0000 -1.0000 -0.0000
vn 0.7071 -0.0000 0.7071
vn 0.2588 -0.0000 0.9659
vn -0.0000 1.0000 -0.0000
vt 1.000000 0.500000
vt 1.000000 1.000000
vt 0.916667 1.000000
vt 0.916667 0.500000
vt 0.833333 1.000000
vt 0.833333 0.500000
vt 0.750000 1.000000
vt 0.750000 0.500000
vt 0.666667 1.000000
vt 0.666667 0.500000
vt 0.583333 1.000000
vt 0.583333 0.500000
vt 0.500000 1.000000
vt 0.500000 0.500000
vt 0.416667 1.000000
vt 0.416667 0.500000
vt 0.333333 1.000000
vt 0.333333 0.500000
vt 0.250000 1.000000
vt 0.250000 0.500000
vt 0.166667 1.000000
vt 0.166667 0.500000
vt 0.370000 0.457846
vt 0.250000 0.490000
vt 0.130000 0.457846
vt 0.042154 0.370000
vt 0.010000 0.250000
vt 0.042154 0.130000
vt 0.130000 0.042154
vt 0.250000 0.010000
vt 0.370000 0.042154
vt 0.457846 0.130000
vt 0.490000 0.250000
vt 0.457846 0.370000
vt 0.083333 1.000000
vt 0.083333 0.500000
vt 0.000000 1.000000
vt 0.000000 0.500000
vt 0.750000 0.490000
vt 0.870000 0.457846
vt 0.957846 0.370000
vt 0.990000 0.250000
vt 0.957846 0.130000
vt 0.870000 0.042154
vt 0.750000 0.010000
vt 0.630000 0.042154
vt 0.542154 0.130000
vt 0.510000 0.250000
vt 0.542154 0.370000
vt 0.630000 0.457846
s 0
f 1/1/1 3/4/1 4/3/1 2/2/1
f 3/4/2 5/6/2 6/5/2 4/3/2
f 5/6/3 7/8/3 8/7/3 6/5/3
f 7/8/4 9/10/4 10/9/4 8/7/4
f 9/10/5 11/12/5 12/11/5 10/9/5
f 11/12/6 13/14/6 14/13/6 12/11/6
f 13/14/7 15/16/7 16/15/7 14/13/7
f 15/16/8 17/18/8 18/17/8 16/15/8
f 17/18/9 19/20/9 20/19/9 18/17/9
f 19/20/10 21/22/10 22/21/10 20/19/10
f 4/23/11 6/34/11 8/33/11 10/32/11 12/31/11 14/30/11 16/29/11 18/28/11 20/27/11 22/26/11 24/25/11 2/24/11
f 21/22/12 23/36/12 24/35/12 22/21/12
f 23/36/13 1/38/13 2/37/13 24/35/13
f 1/39/14 23/50/14 21/49/14 19/48/14 17/47/14 15/46/14 13/45/14 11/44/14 9/43/14 7/42/14 5/41/14 3/40/14
o Cylinder.001
v -0.410000 0.890262 -0.200000
v 0.410000 0.890262 -0.200000
v -0.410000 0.790262 -0.173205
v 0.410000 0.790262 -0.173205
v -0.410000 0.717057 -0.100000
v 0.410000 0.717057 -0.100000
v -0.410000 0.690262 0.000000
v 0.410000 0.690262 0.000000
v -0.410000 0.717057 0.100000
v 0.410000 0.717057 0.100000
v -0.410000 0.790262 0.173205
v 0.410000 0.790262 0.173205
v -0.410000 0.890262 0.200000
v 0.410000 0.890262 0.200000
v -0.410000 0.990262 0.173205
v 0.410000 0.990262 0.173205
v -0.410000 1.063467 0.100000
v 0.410000 1.063467 0.100000
v -0.410000 1.090262 0.000000
v 0.410000 1.090262 0.000000
v -0.410000 1.063467 -0.100000
v 0.410000 1.063467 -0.100000
v -0.410000 0.990262 -0.173205
v 0.410000 0.990262 -0.173205
vn -0.0000 -0.2588 -0.9659
vn -0.0000 -0.7071 -0.7071
vn -0.0000 -0.9659 -0.2588
vn -0.0000 -0.9659 0.2588
vn -0.0000 -0.7071 0.7071
vn -0.0000 -0.2588 0.9659
vn -0.0000 0.2588 0.9659
vn -0.0000 0.7071 0.7071
vn -0.0000 0.9659 0.2588
vn -0.0000 0.9659 -0.2588
vn 1.0000 -0.0000 -0.0000
vn -0.0000 0.7071 -0.7071
vn -0.0000 0.2588 -0.9659
vn -1.0000 -0.0000 -0.0000
vt 1.000000 0.500000
vt 1.000000 1.000000
vt 0.916667 1.000000
vt 0.916667 0.500000
vt 0.833333 1.000000
vt 0.833333 0.500000
vt 0.750000 1.000000
vt 0.750000 0.500000
vt 0.666667 1.000000
vt 0.666667 0.500000
vt 0.583333 1.000000
vt 0.583333 0.500000
vt 0.500000 1.000000
vt 0.500000 0.500000
vt 0.416667 1.000000
vt 0.416667 0.500000
vt 0.333333 1.000000
vt 0.333333 0.500000
vt 0.250000 1.000000
vt 0.250000 0.500000
vt 0.166667 1.000000
vt 0.166667 0.500000
vt 0.370000 0.457846
vt 0.250000 0.490000
vt 0.130000 0.457846
vt 0.042154 0.370000
vt 0.010000 0.250000
vt 0.042154 0.130000
vt 0.130000 0.042154
vt 0.250000 0.010000
vt 0.370000 0.042154
vt 0.457846 0.130000
vt 0.490000 0.250000
vt 0.457846 0.370000
vt 0.083333 1.000000
vt 0.083333 0.500000
vt 0.000000 1.000000
vt 0.000000 0.500000
vt 0.750000 0.490000
vt 0.870000 0.457846
vt 0.957846 0.370000
vt 0.990000 0.250000
vt 0.957846 0.130000
vt 0.870000 0.042154
vt 0.750000 0.010000
vt 0.630000 0.042154
vt 0.542154 0.130000
vt 0.510000 0.250000
vt 0.542154 0.370000
vt 0.630000 0.457846
s 0
usemtl Material.001
f 25/51/15 26/52/15 28/53/15 27/54/15
f 27/54/16 28/53/16 30/55/16 29/56/16
f 29/56/17 30/55/17 32/57/17 31/58/17
f 31/58/18 32/57/18 34/59/18 33/60/18
f 33/60/19 34/59/19 36/61/19 35/62/19
f 35/62/20 36/61/20 38/63/20 37/64/20
f 37/64/21 38/63/21 40/65/21 39/66/21
f 39/66/22 40/65/22 42/67/22 41/68/22
f 41/68/23 42/67/23 44/69/23 43/70/23
f 43/70/24 44/69/24 46/71/24 45/72/24
f 28/73/25 26/74/25 48/75/25 46/76/25 44/77/25 42/78/25 40/79/25 38/80/25 36/81/25 34/82/25 32/83/25 30/84/25
f 45/72/26 46/71/26 48/85/26 47/86/26
f 47/86/27 48/85/27 26/87/27 25/88/27
f 25/89/28 27/90/28 29/91/28 31/92/28 33/93/28 35/94/28 37/95/28 39/96/28 41/97/28 43/98/28 45/99/28 47/100/28
