# Blender 5.1.0
# www.blender.org
mtllib BARREL!!.mtl
o Barrel
v 0.500000 -1.000000 -0.866025
v 0.500000 1.985331 -0.866025
v 0.866025 -1.000000 -0.500000
v 0.866025 1.985331 -0.500000
v 0.866025 -1.000000 0.500000
v 0.866025 1.985331 0.500000
v 0.500000 -1.000000 0.866025
v 0.500000 1.985331 0.866025
v -0.500000 -1.000000 0.866025
v -0.500000 1.985331 0.866025
v -0.866025 -1.000000 0.500000
v -0.866025 1.985331 0.500000
v -0.866025 -1.000000 -0.500000
v -0.866025 1.985331 -0.500000
v -0.500000 -1.000000 -0.866025
v -0.500000 1.985331 -0.866025
v 0.647007 0.460753 -1.120649
v 1.120649 0.460753 -0.647007
v 1.120649 0.460753 0.647007
v 0.647007 0.460753 1.120649
v -0.647007 0.460753 1.120649
v -1.120649 0.460753 0.647007
v -1.120649 0.460753 -0.647007
v -0.647007 0.460753 -1.120649
v 0.599429 1.354281 -1.038241
v 1.038241 1.354281 -0.599429
v 1.038241 1.354281 0.599429
v 0.599429 1.354281 1.038241
v -0.599429 1.354281 1.038241
v -1.038241 1.354281 0.599429
v -1.038241 1.354281 -0.599429
v -0.599429 1.354281 -1.038241
v 0.599429 -0.643608 -1.038241
v 1.038241 -0.643608 -0.599429
v 1.038241 -0.643608 0.599429
v 0.599429 -0.643608 1.038241
v -0.599429 -0.643608 1.038241
v -1.038241 -0.643608 0.599429
v -1.038241 -0.643608 -0.599429
v -0.599429 -0.643608 -1.038241
v 0.473559 2.040821 -0.820228
v 0.820228 2.040821 -0.473559
v 0.820228 2.040821 0.473559
v 0.473559 2.040821 0.820228
v -0.473559 2.040821 0.820228
v -0.820228 2.040821 0.473559
v -0.820228 2.040821 -0.473559
v -0.473559 2.040821 -0.820228
v 0.520266 1.983280 -0.901128
v 0.901128 1.983280 -0.520266
v 0.901128 1.983280 0.520266
v 0.520266 1.983280 0.901128
v -0.520266 1.983280 0.901128
v -0.901128 1.983280 0.520266
v -0.901128 1.983280 -0.520266
v -0.520266 1.983280 -0.901128
v 0.520266 2.088602 -0.901128
v 0.901128 2.088602 -0.520266
v 0.901128 2.088602 0.520266
v 0.520266 2.088602 0.901128
v -0.520266 2.088602 0.901128
v -0.901128 2.088602 0.520266
v -0.901128 2.088602 -0.520266
v -0.520266 2.088602 -0.901128
v 0.500000 2.086550 -0.866025
v 0.866025 2.086550 -0.500000
v 0.866025 2.086550 0.500000
v 0.500000 2.086550 0.866025
v -0.500000 2.086550 0.866025
v -0.866025 2.086550 0.500000
v -0.866025 2.086550 -0.500000
v -0.500000 2.086550 -0.866025
v -0.042998 -1.000000 -0.988479
v 0.042998 -1.000000 -0.988479
v -0.000000 -0.913174 -0.953152
v -0.043146 1.985331 -0.988439
v 0.043146 1.985331 -0.988439
v -0.000000 1.951635 -0.953130
v 0.988479 -1.000000 -0.042998
v 0.988479 -1.000000 0.042998
v 0.953152 -0.913174 0.000000
v 0.988439 1.985331 -0.043146
v 0.988439 1.985331 0.043146
v 0.953130 1.951635 0.000000
v 0.042998 -1.000000 0.988479
v -0.042998 -1.000000 0.988479
v -0.000000 -0.913174 0.953152
v 0.043146 1.985331 0.988439
v -0.043146 1.985331 0.988439
v -0.000000 1.951635 0.953130
v -0.988479 -1.000000 0.042998
v -0.988479 -1.000000 -0.042998
v -0.953152 -0.913174 0.000000
v -0.988439 1.985331 0.043146
v -0.988439 1.985331 -0.043146
v -0.953130 1.951635 0.000000
v -0.043017 0.460753 -1.282488
v 0.043017 0.460753 -1.282488
v 0.000000 0.488606 -1.235293
v 1.282488 0.460753 0.043017
v 1.282488 0.460753 -0.043017
v 1.235293 0.488606 0.000000
v -0.043017 0.460753 1.282488
v 0.043017 0.460753 1.282488
v 0.000000 0.488606 1.235293
v -1.282488 0.460753 -0.043017
v -1.282488 0.460753 0.043017
v -1.235293 0.488606 0.000000
v 0.043066 1.354281 -1.187318
v -0.043066 1.354281 -1.187318
v 0.000000 1.346061 -1.143970
v 1.187318 1.354281 -0.043066
v 1.187318 1.354281 0.043066
v 1.143970 1.346061 0.000000
v 0.043066 1.354281 1.187318
v -0.043066 1.354281 1.187318
v 0.000000 1.346061 1.143970
v -1.187318 1.354281 0.043066
v -1.187318 1.354281 -0.043066
v -1.143970 1.346061 0.000000
v 1.187336 -0.643608 -0.042999
v 1.187336 -0.643608 0.042999
v 1.143981 -0.571170 0.000000
v 0.042999 -0.643608 1.187336
v -0.042999 -0.643608 1.187336
v 0.000000 -0.571170 1.143981
v -1.187336 -0.643608 0.042999
v -1.187336 -0.643608 -0.042999
v -1.143981 -0.571170 0.000000
v 0.042999 -0.643608 -1.187336
v -0.042999 -0.643608 -1.187336
v 0.000000 -0.571170 -1.143981
v 0.043308 2.040821 -0.935514
v -0.043308 2.040821 -0.935514
v -0.000000 2.004884 -0.902358
v 0.935514 2.040821 0.043308
v 0.935514 2.040821 -0.043308
v 0.902358 2.004884 -0.000000
v -0.043308 2.040821 0.935514
v 0.043308 2.040821 0.935514
v 0.000000 2.004884 0.902358
v -0.935514 2.040821 -0.043308
v -0.935514 2.040821 0.043308
v -0.902358 2.004884 0.000000
v 0.043208 1.983280 -1.028955
v -0.043208 1.983280 -1.028955
v 0.000000 1.949666 -0.992016
v 1.028955 1.983280 -0.043208
v 1.028955 1.983280 0.043208
v 0.992016 1.949666 0.000000
v -0.043208 1.983280 1.028955
v 0.043208 1.983280 1.028955
v 0.000000 1.949666 0.992016
v -1.028955 1.983280 0.043208
v -1.028955 1.983280 -0.043208
v -0.992016 1.949666 0.000000
v 0.043257 2.088602 -1.028942
v -0.043257 2.088602 -1.028942
v 0.000000 2.050735 -0.992009
v 1.028942 2.088602 -0.043257
v 1.028942 2.088602 0.043257
v 0.992009 2.050735 0.000000
v -0.043257 2.088602 1.028942
v 0.043257 2.088602 1.028942
v 0.000000 2.050735 0.992009
v -1.028942 2.088602 -0.043257
v -1.028942 2.088602 0.043257
v -0.992009 2.050735 0.000000
v -0.043302 2.086550 -0.988397
v 0.043302 2.086550 -0.988397
v 0.000000 2.048767 -0.953106
v 0.988397 2.086550 -0.043302
v 0.988397 2.086550 0.043302
v 0.953106 2.048767 0.000000
v 0.043302 2.086550 0.988397
v -0.043302 2.086550 0.988397
v 0.000000 2.048767 0.953106
v -0.988397 2.086550 0.043302
v -0.988397 2.086550 -0.043302
v -0.953106 2.048767 0.000000
vn 0.6765 0.2912 -0.6765
vn 0.6765 0.2912 0.6765
vn -0.6765 0.2912 0.6765
vn -0.6765 0.2912 -0.6765
vn -0.7047 -0.0829 -0.7047
vn -0.7047 -0.0829 0.7047
vn 0.7047 -0.0829 0.7047
vn 0.7047 -0.0829 -0.7047
vn -0.7034 0.1023 -0.7034
vn -0.7034 0.1023 0.7034
vn 0.7034 0.1023 0.7034
vn 0.7034 0.1023 -0.7034
vn 0.6225 -0.4744 -0.6225
vn 0.6225 -0.4744 0.6225
vn -0.6225 -0.4744 0.6225
vn -0.6225 -0.4744 -0.6225
vn -0.0370 0.9986 0.0370
vn -0.0370 -0.9986 0.0370
vn 0.0370 0.9986 -0.0370
vn 0.7071 -0.0000 0.7071
vn -0.7071 -0.0000 -0.7071
vn 0.7071 -0.0000 -0.7071
vn -0.7071 -0.0000 0.7071
vn -0.0370 -0.9986 -0.0370
vn 0.0370 0.9986 0.0370
vn 0.0370 -0.9986 -0.0370
vn -0.0370 0.9986 -0.0370
vn 0.0370 -0.9986 0.0370
vn -0.4716 0.7450 0.4716
vn -0.4716 0.7450 -0.4716
vn 0.4716 0.7450 -0.4716
vn 0.4716 0.7450 0.4716
vn 0.7128 0.2109 -0.6689
vn -0.7128 0.2109 -0.6689
vn 0.4425 -0.2469 -0.8621
vn 0.4425 -0.2469 0.8621
vn 0.8621 -0.2469 0.4425
vn -0.8621 -0.2469 0.4425
vn -0.4425 -0.2469 0.8621
vn -0.4425 -0.2469 -0.8621
vn 0.7543 -0.0564 -0.6541
vn -0.7543 -0.0564 -0.6541
vn 0.6955 0.0741 -0.7147
vn 0.6955 0.0741 0.7147
vn 0.7147 0.0741 0.6955
vn -0.7147 0.0741 0.6955
vn -0.6955 0.0741 0.7147
vn -0.6955 0.0741 -0.7147
vn 0.7147 0.0741 -0.6955
vn -0.7147 0.0741 -0.6955
vn 0.6689 0.2109 -0.7128
vn 0.6689 0.2109 0.7128
vn 0.7128 0.2109 0.6689
vn -0.7128 0.2109 0.6689
vn -0.6689 0.2109 0.7128
vn -0.6689 0.2109 -0.7128
vn 0.6541 -0.0564 -0.7543
vn 0.6541 -0.0564 0.7543
vn 0.7543 -0.0564 0.6541
vn -0.7543 -0.0564 0.6541
vn -0.6541 -0.0564 0.7543
vn -0.6541 -0.0564 -0.7543
vn 0.8621 -0.2469 -0.4425
vn -0.8621 -0.2469 -0.4425
vn 0.0392 0.7684 0.6388
vn 0.0392 0.7684 -0.6388
vn 0.6388 0.7684 0.0392
vn -0.6388 0.7684 0.0392
vn 0.0396 -0.7718 -0.6347
vn 0.0396 -0.7718 0.6347
vn -0.0396 -0.7718 -0.6347
vn -0.0396 -0.7718 0.6347
vn -0.6388 0.7684 -0.0392
vn 0.6388 0.7684 -0.0392
vn 0.7602 0.0002 0.6497
vn 0.7602 0.0002 -0.6497
vn -0.6497 0.0002 -0.7602
vn 0.6497 0.0002 -0.7602
vn -0.7602 0.0002 -0.6497
vn -0.7602 0.0002 0.6497
vn -0.6497 0.0002 0.7602
vn 0.6497 0.0002 0.7602
vn 0.6347 -0.7718 -0.0396
vn -0.6347 -0.7718 -0.0396
vn 0.6347 -0.7718 0.0396
vn -0.6347 -0.7718 0.0396
vn -0.0392 0.7684 -0.6388
vn -0.0392 0.7684 0.6388
vn 0.1259 0.7504 0.6489
vn -0.1259 0.7504 0.6489
vn -0.6489 0.7504 -0.1259
vn -0.6489 0.7504 0.1259
vn 0.1259 0.7504 -0.6489
vn -0.1259 0.7504 -0.6489
vn 0.6489 0.7504 0.1259
vn 0.6489 0.7504 -0.1259
vn 0.2278 -0.4744 -0.8503
vn -0.0000 -1.0000 -0.0000
vn -0.2278 -0.4744 -0.8503
vn -0.0135 -0.9986 0.0505
vn 0.2476 0.2912 -0.9241
vn -0.2476 0.2912 -0.9241
vn 0.0135 -0.9986 0.0505
vn 0.8503 -0.4744 -0.2278
vn 0.8503 -0.4744 0.2278
vn -0.0505 -0.9986 0.0135
vn 0.9241 0.2912 0.2476
vn 0.9241 0.2912 -0.2476
vn -0.0505 -0.9986 -0.0135
vn 0.2278 -0.4744 0.8503
vn -0.2278 -0.4744 0.8503
vn -0.0135 -0.9986 -0.0505
vn -0.2476 0.2912 0.9241
vn 0.2476 0.2912 0.9241
vn 0.0135 -0.9986 -0.0505
vn -0.8503 -0.4744 0.2278
vn -0.8503 -0.4744 -0.2278
vn 0.0505 -0.9986 -0.0135
vn -0.9241 0.2912 -0.2476
vn -0.9241 0.2912 0.2476
vn 0.0505 -0.9986 0.0135
vn 0.2579 -0.0829 -0.9626
vn 0.2575 0.1023 -0.9609
vn -0.2579 -0.0829 -0.9626
vn -0.2575 0.1023 -0.9609
vn 0.9609 0.1023 -0.2575
vn 0.9626 -0.0829 -0.2579
vn 0.9609 0.1023 0.2575
vn 0.9626 -0.0829 0.2579
vn 0.2575 0.1023 0.9609
vn 0.2579 -0.0829 0.9626
vn -0.2575 0.1023 0.9609
vn -0.2579 -0.0829 0.9626
vn -0.9609 0.1023 0.2575
vn -0.9626 -0.0829 0.2579
vn -0.9609 0.1023 -0.2575
vn -0.9626 -0.0829 -0.2579
vn -0.1726 0.7450 0.6443
vn -0.0000 1.0000 -0.0000
vn 0.1726 0.7450 0.6443
vn -0.6443 0.7450 0.1726
vn -0.6443 0.7450 -0.1726
vn -0.1726 0.7450 -0.6443
vn 0.1726 0.7450 -0.6443
vn 0.6443 0.7450 -0.1726
vn 0.6443 0.7450 0.1726
vn -0.2588 -0.0000 -0.9659
vn 0.2588 -0.0000 -0.9659
vn 0.9659 -0.0000 -0.2588
vn 0.9659 -0.0000 0.2588
vn 0.2588 -0.0000 0.9659
vn -0.2588 -0.0000 0.9659
vn -0.9659 -0.0000 -0.2588
vn -0.9659 -0.0000 0.2588
vn 0.0135 0.9986 0.0505
vn -0.0135 0.9986 0.0505
vn -0.0505 0.9986 -0.0135
vn -0.0505 0.9986 0.0135
vn -0.0135 0.9986 -0.0505
vn 0.0135 0.9986 -0.0505
vn 0.0505 0.9986 -0.0135
vn 0.0505 0.9986 0.0135
vt 0.916667 0.875000
vt 0.916667 1.000000
vt 0.833333 1.000000
vt 0.833333 0.875000
vt 0.666667 0.875000
vt 0.666667 1.000000
vt 0.583333 1.000000
vt 0.583333 0.875000
vt 0.416667 0.875000
vt 0.416667 1.000000
vt 0.333333 1.000000
vt 0.333333 0.875000
vt 0.166667 0.875000
vt 0.166667 1.000000
vt 0.083333 1.000000
vt 0.083333 0.875000
vt 0.166667 0.625000
vt 0.166667 0.750000
vt 0.083333 0.750000
vt 0.083333 0.625000
vt 0.416667 0.625000
vt 0.416667 0.750000
vt 0.333333 0.750000
vt 0.333333 0.625000
vt 0.666667 0.625000
vt 0.666667 0.750000
vt 0.583333 0.750000
vt 0.583333 0.625000
vt 0.916667 0.625000
vt 0.916667 0.750000
vt 0.833333 0.750000
vt 0.833333 0.625000
vt 0.916667 0.500000
vt 0.833333 0.500000
vt 0.666667 0.500000
vt 0.583333 0.500000
vt 0.416667 0.500000
vt 0.333333 0.500000
vt 0.166667 0.500000
vt 0.083333 0.500000
vt 0.370000 0.457846
vt 0.457846 0.370000
vt 0.622101 0.072082
vt 0.396344 0.066877
vt 0.392596 0.048186
vt 0.626865 0.054603
vt 0.130000 0.042154
vt 0.042154 0.130000
vt 0.948444 0.625039
vt 0.952110 0.390748
vt 0.999171 0.380410
vt 0.999171 0.636202
vt 0.050993 0.377756
vt 0.049550 0.612366
vt 0.002830 0.623133
vt -0.000000 0.367175
vt 0.383010 0.000000
vt 0.638855 0.004351
vt 0.369690 0.944199
vt 0.603909 0.951799
vt 0.613319 1.000000
vt 0.357677 0.993760
vt 0.929988 0.620480
vt 0.934624 0.394678
vt 0.042154 0.370000
vt 0.130000 0.457846
vt 0.374434 0.926937
vt 0.600216 0.933090
vt 0.457846 0.130000
vt 0.370000 0.042154
vt 0.069555 0.382112
vt 0.066932 0.608307
vt 0.363654 0.446855
vt 0.446855 0.363654
vt 0.446855 0.136346
vt 0.363654 0.053145
vt 0.136346 0.053145
vt 0.053145 0.136346
vt 0.053145 0.363654
vt 0.136346 0.446855
vt 0.005987 0.875000
vt 0.007191 1.000000
vt 0.000000 1.000000
vt 0.000000 0.875192
vt 1.000000 0.875192
vt 1.000000 1.000000
vt 0.992809 1.000000
vt 0.994013 0.875000
vt 0.744022 0.625000
vt 0.742834 0.500000
vt 0.750000 0.500000
vt 0.750000 0.624496
vt 0.757166 0.500000
vt 0.755978 0.625000
vt 0.494022 0.625000
vt 0.492834 0.500000
vt 0.500000 0.500000
vt 0.500000 0.624496
vt 0.507166 0.500000
vt 0.505978 0.625000
vt 0.244022 0.625000
vt 0.242834 0.500000
vt 0.250000 0.500000
vt 0.250000 0.624496
vt 0.257166 0.500000
vt 0.255978 0.625000
vt 0.005978 0.625000
vt 0.005541 0.750000
vt 0.000000 0.750017
vt 0.000000 0.624496
vt 1.000000 0.624496
vt 1.000000 0.750017
vt 0.994459 0.750000
vt 0.994022 0.625000
vt 0.744013 0.875000
vt 0.744460 0.750000
vt 0.750000 0.750017
vt 0.750000 0.875192
vt 0.755541 0.750000
vt 0.755987 0.875000
vt 0.494013 0.875000
vt 0.494460 0.750000
vt 0.500000 0.750017
vt 0.500000 0.875192
vt 0.505541 0.750000
vt 0.505987 0.875000
vt 0.244013 0.875000
vt 0.244460 0.750000
vt 0.250000 0.750017
vt 0.250000 0.875192
vt 0.255541 0.750000
vt 0.255987 0.875000
vt 0.742809 1.000000
vt 0.750000 1.000000
vt 0.757191 1.000000
vt 0.492809 1.000000
vt 0.500000 1.000000
vt 0.507191 1.000000
vt 0.242809 1.000000
vt 0.250000 1.000000
vt 0.257191 1.000000
vt 0.007166 0.500000
vt 0.000000 0.500000
vt 1.000000 0.500000
vt 0.992834 0.500000
vt 0.012785 0.260392
vt 0.012673 0.259977
vt 0.010000 0.250000
vt 0.010467 0.250000
vt 0.012673 0.240023
vt 0.012785 0.239607
vt 0.240023 0.487327
vt 0.239607 0.487215
vt 0.250000 0.489533
vt 0.250000 0.490000
vt 0.260392 0.487215
vt 0.259977 0.487327
vt 0.145578 0.802471
vt 0.158544 0.790429
vt 0.189501 0.796238
vt 0.174956 0.810211
vt 0.194082 0.827457
vt 0.181441 0.839998
vt 0.807983 0.172391
vt 0.820821 0.159503
vt 0.827498 0.189866
vt 0.812817 0.204011
vt 0.857271 0.197842
vt 0.844040 0.209988
vt 0.259977 0.012673
vt 0.260392 0.012785
vt 0.250000 0.010467
vt 0.250000 0.010000
vt 0.239608 0.012785
vt 0.240023 0.012673
vt 0.854145 0.116709
vt 0.865096 0.154064
vt 0.901028 0.167160
vt 0.158034 0.094098
vt 0.189287 0.139921
vt 0.180871 0.170263
vt 0.143984 0.131697
vt 0.150177 0.177439
vt 0.105520 0.143953
vt 0.148741 0.881716
vt 0.138110 0.845366
vt 0.102747 0.832872
vt 0.846746 0.822906
vt 0.890842 0.856702
vt 0.852535 0.868519
vt 0.816033 0.829768
vt 0.838426 0.905932
vt 0.807453 0.860082
vt 0.833527 0.810006
vt 0.802062 0.814968
vt 0.795309 0.846175
vt 0.201482 0.153785
vt 0.194910 0.184881
vt 0.163591 0.190209
vt 0.487215 0.239608
vt 0.487327 0.240023
vt 0.490000 0.250000
vt 0.489533 0.250000
vt 0.487327 0.259977
vt 0.487215 0.260392
vt 0.239606 0.474523
vt 0.250000 0.476765
vt 0.260394 0.474523
vt 0.474523 0.239606
vt 0.476765 0.250000
vt 0.474523 0.260394
vt 0.239606 0.025477
vt 0.250000 0.023235
vt 0.260394 0.025477
vt 0.025477 0.260394
vt 0.023235 0.250000
vt 0.025477 0.239606
vt 0.739681 0.487235
vt 0.750000 0.488380
vt 0.760319 0.487235
vt 0.870000 0.457846
vt 0.957846 0.370000
vt 0.987235 0.260319
vt 0.988380 0.250000
vt 0.987235 0.239681
vt 0.957846 0.130000
vt 0.870000 0.042154
vt 0.760319 0.012765
vt 0.750000 0.011620
vt 0.739681 0.012765
vt 0.630000 0.042154
vt 0.542154 0.130000
vt 0.512765 0.239681
vt 0.511620 0.250000
vt 0.512765 0.260319
vt 0.542154 0.370000
vt 0.630000 0.457846
s 0
usemtl Material.004
f 25/1/1 2/2/1 4/3/1 26/4/1
f 27/5/2 6/6/2 8/7/2 28/8/2
f 29/9/3 10/10/3 12/11/3 30/12/3
f 31/13/4 14/14/4 16/15/4 32/16/4
f 39/17/5 23/18/5 24/19/5 40/20/5
f 37/21/6 21/22/6 22/23/6 38/24/6
f 35/25/7 19/26/7 20/27/7 36/28/7
f 33/29/8 17/30/8 18/31/8 34/32/8
f 23/18/9 31/13/9 32/16/9 24/19/9
f 21/22/10 29/9/10 30/12/10 22/23/10
f 19/26/11 27/5/11 28/8/11 20/27/11
f 17/30/12 25/1/12 26/4/12 18/31/12
f 1/33/13 33/29/13 34/32/13 3/34/13
f 5/35/14 35/25/14 36/28/14 7/36/14
f 9/37/15 37/21/15 38/24/15 11/38/15
f 13/39/16 39/17/16 40/20/16 15/40/16
f 65/41/17 66/42/17 58/42/17 57/41/17
f 4/43/18 2/44/18 49/45/18 50/46/18
f 69/47/19 70/48/19 62/48/19 61/47/19
f 52/49/20 51/50/20 59/51/20 60/52/20
f 56/53/21 55/54/21 63/55/21 64/56/21
f 50/46/22 49/45/22 57/57/22 58/58/22
f 54/59/23 53/60/23 61/61/23 62/62/23
f 8/63/24 6/64/24 51/50/24 52/49/24
f 71/65/25 72/66/25 64/66/25 63/65/25
f 12/67/26 10/68/26 53/60/26 54/59/26
f 67/69/27 68/70/27 60/70/27 59/69/27
f 16/71/28 14/72/28 55/54/28 56/53/28
f 41/73/29 42/74/29 66/42/29 65/41/29
f 43/75/30 44/76/30 68/70/30 67/69/30
f 45/77/31 46/78/31 70/48/31 69/47/31
f 47/79/32 48/80/32 72/66/32 71/65/32
f 110/81/33 76/82/33 78/83/33 111/84/33
f 111/85/34 78/86/34 77/87/34 109/88/34
f 122/89/35 80/90/35 81/91/35 123/92/35
f 123/92/36 81/91/36 79/93/36 121/94/36
f 125/95/37 86/96/37 87/97/37 126/98/37
f 126/98/38 87/97/38 85/99/38 124/100/38
f 128/101/39 92/102/39 93/103/39 129/104/39
f 129/104/40 93/103/40 91/105/40 127/106/40
f 131/107/41 97/108/41 99/109/41 132/110/41
f 132/111/42 99/112/42 98/113/42 130/114/42
f 113/115/43 100/116/43 102/117/43 114/118/43
f 114/118/44 102/117/44 101/119/44 112/120/44
f 116/121/45 103/122/45 105/123/45 117/124/45
f 117/124/46 105/123/46 104/125/46 115/126/46
f 119/127/47 106/128/47 108/129/47 120/130/47
f 120/130/48 108/129/48 107/131/48 118/132/48
f 97/108/49 110/81/49 111/84/49 99/109/49
f 99/112/50 111/85/50 109/88/50 98/113/50
f 83/133/51 113/115/51 114/118/51 84/134/51
f 84/134/52 114/118/52 112/120/52 82/135/52
f 89/136/53 116/121/53 117/124/53 90/137/53
f 90/137/54 117/124/54 115/126/54 88/138/54
f 95/139/55 119/127/55 120/130/55 96/140/55
f 96/140/56 120/130/56 118/132/56 94/141/56
f 100/116/57 122/89/57 123/92/57 102/117/57
f 102/117/58 123/92/58 121/94/58 101/119/58
f 103/122/59 125/95/59 126/98/59 105/123/59
f 105/123/60 126/98/60 124/100/60 104/125/60
f 106/128/61 128/101/61 129/104/61 108/129/61
f 108/129/62 129/104/62 127/106/62 107/131/62
f 73/142/63 131/107/63 132/110/63 75/143/63
f 75/144/64 132/111/64 130/114/64 74/145/64
f 179/146/65 166/147/65 168/148/65 180/149/65
f 180/149/66 168/148/66 167/150/66 178/151/66
f 158/152/67 169/153/67 171/154/67 159/155/67
f 159/155/68 171/154/68 170/156/68 157/157/68
f 155/158/69 95/159/69 96/160/69 156/161/69
f 156/161/70 96/160/70 94/162/70 154/163/70
f 82/164/71 148/165/71 150/166/71 84/167/71
f 84/167/72 150/166/72 149/168/72 83/169/72
f 164/170/73 175/171/73 177/172/73 165/173/73
f 165/173/74 177/172/74 176/174/74 163/175/74
f 148/165/75 160/176/75 162/177/75 150/166/75
f 150/166/76 162/177/76 161/178/76 149/168/76
f 157/179/77 145/180/77 147/181/77 159/182/77
f 159/182/78 147/181/78 146/183/78 158/184/78
f 154/163/79 167/185/79 168/186/79 156/161/79
f 156/161/80 168/186/80 166/187/80 155/158/80
f 152/188/81 164/189/81 165/190/81 153/191/81
f 153/191/82 165/190/82 163/192/82 151/193/82
f 88/194/83 152/188/83 153/191/83 90/195/83
f 90/195/84 153/191/84 151/193/84 89/196/84
f 145/180/85 77/197/85 78/198/85 147/181/85
f 147/181/86 78/198/86 76/199/86 146/183/86
f 173/200/87 161/201/87 162/202/87 174/203/87
f 174/203/88 162/202/88 160/204/88 172/205/88
f 169/153/89 134/206/89 135/207/89 171/154/89
f 171/154/90 135/207/90 133/208/90 170/156/90
f 136/209/91 173/200/91 174/203/91 138/210/91
f 138/210/92 174/203/92 172/205/92 137/211/92
f 139/212/93 176/174/93 177/172/93 141/213/93
f 141/213/94 177/172/94 175/171/94 140/214/94
f 142/215/95 179/146/95 180/149/95 144/216/95
f 144/216/96 180/149/96 178/151/96 143/217/96
f 74/145/97 130/114/97 33/29/97 1/33/97
f 73/218/98 75/219/98 74/220/98 1/221/98 3/222/98 79/223/98 81/224/98 80/225/98 5/226/98 7/227/98 85/228/98 87/229/98 86/230/98 9/231/98 11/232/98 91/233/98 93/234/98 92/235/98 13/236/98 15/237/98
f 15/40/99 40/20/99 131/107/99 73/142/99
f 2/44/100 77/197/100 145/180/100 49/45/100
f 109/88/101 77/87/101 2/2/101 25/1/101
f 32/16/102 16/15/102 76/82/102 110/81/102
f 76/199/103 16/71/103 56/53/103 146/183/103
f 3/34/104 34/32/104 121/94/104 79/93/104
f 80/90/105 122/89/105 35/25/105 5/35/105
f 82/164/106 4/43/106 50/46/106 148/165/106
f 113/115/107 83/133/107 6/6/107 27/5/107
f 26/4/108 4/3/108 82/135/108 112/120/108
f 6/64/109 83/169/109 149/168/109 51/50/109
f 7/36/110 36/28/110 124/100/110 85/99/110
f 86/96/111 125/95/111 37/21/111 9/37/111
f 88/194/112 8/63/112 52/49/112 152/188/112
f 116/121/113 89/136/113 10/10/113 29/9/113
f 28/8/114 8/7/114 88/138/114 115/126/114
f 10/68/115 89/196/115 151/193/115 53/60/115
f 11/38/116 38/24/116 127/106/116 91/105/116
f 92/102/117 128/101/117 39/17/117 13/39/117
f 94/162/118 12/67/118 54/59/118 154/163/118
f 119/127/119 95/139/119 14/14/119 31/13/119
f 30/12/120 12/11/120 94/141/120 118/132/120
f 14/72/121 95/159/121 155/158/121 55/54/121
f 130/114/122 98/113/122 17/30/122 33/29/122
f 98/113/123 109/88/123 25/1/123 17/30/123
f 40/20/124 24/19/124 97/108/124 131/107/124
f 24/19/125 32/16/125 110/81/125 97/108/125
f 18/31/126 26/4/126 112/120/126 101/119/126
f 34/32/127 18/31/127 101/119/127 121/94/127
f 100/116/128 113/115/128 27/5/128 19/26/128
f 122/89/129 100/116/129 19/26/129 35/25/129
f 20/27/130 28/8/130 115/126/130 104/125/130
f 36/28/131 20/27/131 104/125/131 124/100/131
f 103/122/132 116/121/132 29/9/132 21/22/132
f 125/95/133 103/122/133 21/22/133 37/21/133
f 22/23/134 30/12/134 118/132/134 107/131/134
f 38/24/135 22/23/135 107/131/135 127/106/135
f 106/128/136 119/127/136 31/13/136 23/18/136
f 128/101/137 106/128/137 23/18/137 39/17/137
f 133/208/138 41/73/138 65/41/138 170/156/138
f 41/73/139 133/208/139 135/207/139 134/206/139 48/80/139 47/79/139 142/215/139 144/216/139 143/217/139 46/78/139 45/77/139 139/212/139 141/213/139 140/214/139 44/76/139 43/75/139 136/209/139 138/210/139 137/211/139 42/74/139
f 48/80/140 134/206/140 169/153/140 72/66/140
f 42/74/141 137/211/141 172/205/141 66/42/141
f 136/209/142 43/75/142 67/69/142 173/200/142
f 44/76/143 140/214/143 175/171/143 68/70/143
f 139/212/144 45/77/144 69/47/144 176/174/144
f 46/78/145 143/217/145 178/151/145 70/48/145
f 142/215/146 47/79/146 71/65/146 179/146/146
f 146/183/147 56/53/147 64/56/147 158/184/147
f 49/45/148 145/180/148 157/179/148 57/57/148
f 148/165/149 50/46/149 58/58/149 160/176/149
f 51/50/150 149/168/150 161/178/150 59/51/150
f 152/188/151 52/49/151 60/52/151 164/189/151
f 53/60/152 151/193/152 163/192/152 61/61/152
f 55/54/153 155/158/153 166/187/153 63/55/153
f 154/163/154 54/59/154 62/62/154 167/185/154
f 72/66/155 169/153/155 158/152/155 64/66/155
f 170/156/156 65/41/156 57/41/156 157/157/156
f 173/200/157 67/69/157 59/69/157 161/201/157
f 66/42/158 172/205/158 160/204/158 58/42/158
f 68/70/159 175/171/159 164/170/159 60/70/159
f 176/174/160 69/47/160 61/47/160 163/175/160
f 70/48/161 178/151/161 167/150/161 62/48/161
f 179/146/162 71/65/162 63/65/162 166/147/162
