# Blender 5.1.0
# www.blender.org
mtllib Honk_shoo_mimimimi.mtl
o Cube
v -0.855372 -0.200000 1.710745
v -1.000000 -0.171074 2.000000
v -0.973428 -0.195673 1.946856
v -0.855372 0.200000 1.835471
v -1.000000 0.110971 2.000000
v -0.978363 0.157465 1.956726
v -0.855372 -0.200000 -1.710745
v -1.000000 -0.171074 -2.000000
v -0.973428 -0.195673 -1.946856
v -0.855372 0.200000 -1.835471
v -1.000000 0.110971 -2.000000
v -0.978363 0.157465 -1.956726
v 0.855372 -0.200000 1.710745
v 1.000000 -0.171074 2.000000
v 0.973428 -0.195673 1.946856
v 0.855372 0.200000 1.835471
v 1.000000 0.110971 2.000000
v 0.978363 0.157465 1.956726
v 0.855372 -0.200000 -1.710745
v 1.000000 -0.171074 -2.000000
v 0.973428 -0.195673 -1.946856
v 0.855372 0.200000 -1.835471
v 1.000000 0.110971 -2.000000
v 0.978363 0.157465 -1.956726
vn -0.0366 -0.9993 -0.0000
vn -0.6793 -0.7338 -0.0000
vn -0.3268 0.9451 -0.0000
vn -0.9066 0.4219 -0.0000
vn -0.0000 -0.9998 -0.0183
vn -0.0000 -0.9075 -0.4200
vn -0.0000 0.9436 -0.3310
vn -0.0000 0.6813 -0.7320
vn 0.0366 -0.9993 -0.0000
vn 0.6793 -0.7338 -0.0000
vn 0.3268 0.9451 -0.0000
vn 0.9066 0.4219 -0.0000
vn -0.0000 -0.9998 0.0183
vn -0.0000 -0.9075 0.4200
vn -0.0000 0.9436 0.3310
vn -0.0000 0.6813 0.7320
vn -0.0000 -1.0000 -0.0000
vn -1.0000 -0.0000 -0.0000
vn -0.0000 -0.0000 1.0000
vn -0.0000 1.0000 -0.0000
vn -0.0000 -0.0000 -1.0000
vn 1.0000 -0.0000 -0.0000
vt 0.143078 0.518079
vt 0.143078 0.731922
vt 0.126661 0.748339
vt 0.126661 0.501661
vt 0.375000 0.250000
vt 0.375000 0.003321
vt 0.393078 0.000000
vt 0.393078 0.250000
vt 0.856922 0.731922
vt 0.856922 0.518078
vt 0.873648 0.501352
vt 0.873648 0.748648
vt 0.625000 0.002705
vt 0.625000 0.250000
vt 0.606922 0.250000
vt 0.606922 0.000000
vt 0.356922 0.518078
vt 0.374170 0.500830
vt 0.393078 0.500000
vt 0.643078 0.518079
vt 0.625676 0.500676
vt 0.606922 0.500000
vt 0.356922 0.731922
vt 0.374170 0.749170
vt 0.393078 0.750000
vt 0.643078 0.731922
vt 0.625676 0.749324
vt 0.606922 0.750000
vt 0.375000 0.996679
vt 0.393078 1.000000
vt 0.625000 0.997295
vt 0.606922 1.000000
s 0
f 7/1/1 1/2/1 3/3/1 9/4/1
f 9/5/2 3/6/2 2/7/2 8/8/2
f 4/9/3 10/10/3 12/11/3 6/12/3
f 6/13/4 12/14/4 11/15/4 5/16/4
f 19/17/5 7/1/5 9/4/5 21/18/5
f 21/18/6 9/5/6 8/8/6 20/19/6
f 10/10/7 22/20/7 24/21/7 12/11/7
f 12/14/8 24/21/8 23/22/8 11/15/8
f 13/23/9 19/17/9 21/18/9 15/24/9
f 15/24/10 21/18/10 20/19/10 14/25/10
f 22/20/11 16/26/11 18/27/11 24/21/11
f 24/21/12 18/27/12 17/28/12 23/22/12
f 1/2/13 13/23/13 15/24/13 3/3/13
f 3/29/14 15/24/14 14/25/14 2/30/14
f 16/26/15 4/9/15 6/12/15 18/27/15
f 18/27/16 6/31/16 5/32/16 17/28/16
f 7/1/17 19/17/17 13/23/17 1/2/17
f 2/7/18 5/16/18 11/15/18 8/8/18
f 14/25/19 17/28/19 5/32/19 2/30/19
f 22/20/20 10/10/20 4/9/20 16/26/20
f 8/8/21 11/15/21 23/22/21 20/19/21
f 20/19/22 23/22/22 17/28/22 14/25/22
o Cube.001
v -0.598310 0.177178 1.726305
v -0.598310 0.177178 1.184369
v 0.598310 0.177178 1.726305
v 0.598310 0.177178 1.184369
v -0.470893 0.301854 1.637104
v -0.598310 0.262662 1.726305
v -0.575047 0.286111 1.715769
v -0.470893 0.301854 1.273570
v -0.598310 0.262662 1.184369
v -0.575047 0.286111 1.194905
v 0.470893 0.301854 1.637104
v 0.598310 0.262662 1.726305
v 0.575047 0.286111 1.715769
v 0.470893 0.301854 1.273570
v 0.598310 0.262662 1.184369
v 0.575047 0.286111 1.194905
vn -0.0000 -1.0000 -0.0000
vn -0.1495 0.9888 -0.0000
vn -0.7099 0.7043 -0.0000
vn -0.0000 0.9806 -0.1962
vn -0.0000 0.4098 -0.9122
vn 0.1495 0.9888 -0.0000
vn 0.7099 0.7043 -0.0000
vn -0.0000 0.9806 0.1962
vn -0.0000 0.4098 0.9122
vn -0.0000 -0.0000 1.0000
vn -1.0000 -0.0000 -0.0000
vn -0.0000 1.0000 -0.0000
vn -0.0000 -0.0000 -1.0000
vn 1.0000 -0.0000 -0.0000
vt 0.125000 0.500000
vt 0.375000 0.500000
vt 0.375000 0.750000
vt 0.125000 0.750000
vt 0.833851 0.708851
vt 0.833851 0.541149
vt 0.872570 0.502430
vt 0.872570 0.747570
vt 0.625000 0.004860
vt 0.625000 0.250000
vt 0.583851 0.250000
vt 0.583851 0.000000
vt 0.666149 0.541149
vt 0.626215 0.501215
vt 0.583851 0.500000
vt 0.666149 0.708851
vt 0.626215 0.748785
vt 0.583851 0.750000
vt 0.625000 0.995140
vt 0.583851 1.000000
vt 0.375000 1.000000
vt 0.375000 0.000000
vt 0.375000 0.250000
s 0
f 26/33/23 28/34/23 27/35/23 25/36/23
f 29/37/24 32/38/24 34/39/24 31/40/24
f 31/41/25 34/42/25 33/43/25 30/44/25
f 32/38/26 38/45/26 40/46/26 34/39/26
f 34/42/27 40/46/27 39/47/27 33/43/27
f 38/45/28 35/48/28 37/49/28 40/46/28
f 40/46/29 37/49/29 36/50/29 39/47/29
f 35/48/30 29/37/30 31/40/30 37/49/30
f 37/49/31 31/51/31 30/52/31 36/50/31
f 27/35/32 36/50/32 30/52/32 25/53/32
f 25/54/33 30/44/33 33/43/33 26/55/33
f 38/45/34 32/38/34 29/37/34 35/48/34
f 26/55/35 33/43/35 39/47/35 28/34/35
f 28/34/36 39/47/36 36/50/36 27/35/36
o Cube.002
v -1.200000 -0.200209 2.200000
v -1.200000 -0.200209 -2.200000
v 1.200000 -0.200209 2.200000
v 1.200000 -0.200209 -2.200000
v -1.200000 0.123240 2.200000
v -1.200000 0.123240 -2.200000
v 1.200000 0.123240 -2.200000
v 1.200000 0.123240 2.200000
v -1.150308 0.123240 2.154643
v -1.111687 0.123240 2.119391
v -1.150300 0.123240 -2.150041
v -1.111687 0.123240 -2.111227
v 1.150300 0.123240 -2.150041
v 1.150766 0.123240 2.200000
v 1.150308 0.123240 2.154643
v 1.150766 0.123240 1.831835
v -1.200000 1.475136 2.200000
v -1.200000 1.475136 -2.200000
v 1.200000 1.475136 -2.200000
v 1.200000 1.475136 2.200000
v -1.150308 1.475136 2.154643
v -1.150300 1.475136 -2.150041
v 1.150300 1.475136 -2.150041
v 1.150308 1.475136 2.154643
v -1.200000 1.250372 -2.200000
v 1.200000 1.250372 -2.200000
v 1.200000 1.250372 2.200000
v -1.200000 1.250372 2.200000
v 1.200000 0.123240 1.831835
v 1.200000 0.123240 -1.855796
v 1.200000 0.123240 1.595835
v 1.200000 0.364700 1.831835
v 1.200000 0.985975 1.831835
v 1.200000 1.250372 1.586778
v 1.200000 1.025824 -1.855796
v 1.200000 1.250372 -1.602916
v 1.200000 0.382813 -1.855796
v 1.200000 0.123240 -1.610162
v 1.150766 1.475136 -2.200000
v 1.150766 1.475136 2.200000
v 1.150766 1.250372 -2.200000
v 1.150766 1.250372 2.200000
v 1.150766 0.123240 -2.200000
v 1.150766 1.250372 -1.855796
v 1.150766 0.123240 1.595835
v 1.150766 1.250372 1.831835
v 1.150766 0.985975 1.831835
v 1.150766 0.123240 -1.855796
v 1.150766 1.250372 -1.602916
v 1.150766 1.025824 -1.855796
v 1.150766 0.364700 1.831835
v 1.150766 1.250372 1.586778
v 1.150766 0.382813 -1.855796
v 1.150766 0.123240 -1.610162
vn -1.0000 -0.0000 -0.0000
vn -0.0000 -0.0000 -1.0000
vn 1.0000 -0.0000 -0.0000
vn -0.0000 -0.0000 1.0000
vn -0.0000 -1.0000 -0.0000
vn -0.0000 1.0000 -0.0000
vn -0.0000 0.6990 -0.7151
vn -0.0000 -0.7478 0.6640
vn -0.0000 0.6873 0.7263
vn -0.0000 -0.6798 -0.7334
vt 0.375000 0.000000
vt 0.625000 0.000000
vt 0.625000 0.250000
vt 0.375000 0.250000
vt 0.625000 0.500000
vt 0.375000 0.500000
vt 0.625000 0.519557
vt 0.625000 0.533514
vt 0.625000 0.715672
vt 0.625000 0.729082
vt 0.625000 0.750000
vt 0.375000 0.750000
vt 0.625000 1.000000
vt 0.375000 1.000000
vt 0.125000 0.500000
vt 0.125000 0.750000
vt 0.869824 0.744824
vt 0.630176 0.744824
vt 0.865801 0.740801
vt 0.625000 0.533925
vt 0.625000 0.715158
vt 0.625000 0.729082
vt 0.630177 0.505177
vt 0.869823 0.505177
vt 0.865801 0.509199
vt 0.875000 0.750000
vt 0.875000 0.500000
vt 0.000000 0.000000
s 0
f 41/56/37 45/57/37 46/58/37 42/59/37
f 42/59/38 46/58/38 47/60/38 44/61/38
f 44/61/39 47/60/39 70/62/39 78/63/39 71/64/39 69/65/39 48/66/39 43/67/39
f 43/67/40 48/66/40 45/68/40 41/69/40
f 42/70/41 44/61/41 43/67/41 41/71/41
f 49/72/42 55/73/42 50/74/42
f 81/60/37 84/62/37 89/75/37 92/76/37 86/77/37 82/66/37 80/66/37 79/60/37
f 86/77/37 87/65/37 91/65/37 56/65/37 54/66/37 82/66/37
f 53/78/42 51/79/42 52/80/42
f 51/79/42 49/72/42 50/74/42 52/80/42
f 55/73/42 49/72/42 45/81/42 48/66/42
f 49/72/42 51/79/42 46/82/42 45/81/42
f 51/79/42 53/78/42 47/60/42 46/82/42
f 53/78/42 52/80/42 50/74/42 55/73/42 48/66/42 69/65/42 71/64/42 78/63/42 70/62/42 47/60/42
f 83/60/37 88/62/37 93/62/37 90/62/37 84/62/37 81/60/37
f 65/58/40 66/60/40 59/60/40 58/58/40
f 53/78/38 51/79/38 62/79/38 63/78/38
f 72/83/43 71/83/43 85/83/43 91/83/43
f 49/72/40 55/73/40 64/73/40 61/72/40
f 68/57/39 65/58/39 58/58/39 57/57/39
f 51/79/37 49/72/37 61/72/37 62/79/37
f 67/66/38 68/68/38 57/68/38 60/66/38
f 60/66/41 57/68/41 61/72/41 64/73/41
f 57/68/41 58/58/41 62/79/41 61/72/41
f 58/58/41 59/60/41 63/78/41 62/79/41
f 59/60/41 60/66/41 64/73/41 63/78/41
f 48/66/38 45/68/38 68/68/38 67/66/38
f 45/57/39 46/58/39 65/58/39 68/57/39
f 66/60/38 47/60/38 83/60/38 81/60/38
f 46/58/40 47/60/40 66/60/40 65/58/40
f 71/64/41 69/65/41 56/65/41 85/64/41
f 67/66/40 60/66/40 80/66/40 82/66/40
f 75/83/44 76/83/44 89/83/44 90/83/44
f 76/83/41 74/83/41 92/83/41 89/83/41
f 59/60/38 66/60/38 81/60/38 79/60/38
f 84/62/37 90/62/37 89/75/37
f 91/65/37 85/64/37 56/65/37
f 92/76/37 87/65/37 86/77/37
f 94/63/37 93/62/37 88/62/37
f 70/62/41 78/63/41 94/63/41 88/62/41
f 48/66/40 67/66/40 82/66/40 54/66/40
f 73/83/38 72/83/38 91/83/38 87/83/38
f 78/83/45 77/83/45 93/83/45 94/83/45
f 47/60/41 70/62/41 88/62/41 83/60/41
f 60/66/42 59/60/42 79/60/42 80/66/42
f 74/83/46 73/83/46 87/83/46 92/83/46
f 69/65/41 48/66/41 54/66/41 56/65/41
f 77/83/40 75/83/40 90/83/40 93/83/40
f 67/66/39 48/66/39 72/83/39 73/83/39
f 59/60/39 60/66/39 74/83/39 76/83/39
f 73/83/39 74/83/39 60/66/39 67/66/39
f 69/83/39 71/83/39 72/83/39 48/83/39
f 47/60/39 66/60/39 75/83/39 77/83/39
f 59/60/39 76/83/39 75/83/39 66/60/39
f 47/83/39 77/83/39 78/83/39 70/83/39
